<svg width="1680" height="405" viewBox="0 0 1680 405" fill="none" xmlns="http://www.w3.org/2000/svg">
<rect x="773.438" y="2.8125" width="742.5" height="219.375" rx="42.1875" fill="white"/>
<rect x="773.438" y="2.8125" width="742.5" height="219.375" rx="42.1875" stroke="#FFC96D" stroke-width="5.625" stroke-dasharray="5.63 5.63"/>
<rect x="860.625" y="45" width="16.875" height="135" rx="8.43751" fill="#F59E0B"/>
<rect x="900" y="63.2812" width="16.875" height="98.4375" rx="8.43751" fill="#F59E0B"/>
<rect x="939.375" y="53.4375" width="16.875" height="118.125" rx="8.43751" fill="#F59E0B"/>
<rect x="978.75" y="45" width="16.875" height="135" rx="8.43751" fill="#F59E0B"/>
<rect x="1018.12" y="71.7188" width="16.875" height="81.5625" rx="8.43751" fill="#F59E0B"/>
<rect x="1057.5" y="45" width="16.875" height="135" rx="8.43751" fill="#F59E0B"/>
<rect x="1096.88" y="63.2812" width="16.875" height="98.4375" rx="8.43751" fill="#F59E0B"/>
<rect x="1136.25" y="53.4375" width="16.875" height="118.125" rx="8.43751" fill="#F59E0B"/>
<rect x="1175.62" y="45" width="16.875" height="135" rx="8.43751" fill="#F59E0B"/>
<rect x="1215" y="71.7188" width="16.875" height="81.5625" rx="8.43751" fill="#F59E0B"/>
<rect x="1254.38" y="45" width="16.875" height="135" rx="8.43751" fill="#F59E0B"/>
<rect x="1293.75" y="63.2812" width="16.875" height="98.4375" rx="8.43751" fill="#F59E0B"/>
<rect x="1333.13" y="53.4375" width="16.875" height="118.125" rx="8.43751" fill="#F59E0B"/>
<rect x="1372.5" y="45" width="16.875" height="135" rx="8.43751" fill="#F59E0B"/>
<rect x="1411.88" y="71.7188" width="16.875" height="81.5625" rx="8.43751" fill="#F59E0B"/>
<path d="M1509.44 120.81L1503.97 121.427C1505.16 132.032 1519.07 135.168 1524.7 126.102L1540.99 99.8818L1571.56 95.6706C1582.14 94.2146 1584.93 80.2321 1575.73 74.826L1512.64 37.7641C1504.65 33.068 1494.73 39.5126 1495.77 48.7247L1503.97 121.427L1509.44 120.81ZM1509.44 120.81L1509.48 120.806L1509.44 120.81Z" fill="#F59E0B" stroke="#FFC96D" stroke-width="11.25"/>
<rect x="1553.1" y="130.906" width="174.375" height="101.25" rx="50.625" fill="#F59E0B"/>
<rect x="1553.1" y="130.906" width="174.375" height="101.25" rx="50.625" stroke="#FFC96D" stroke-width="11.25"/>
<path d="M1597.91 206.531V163.576H1605.99V170.4H1606.44C1607.22 168.088 1608.6 166.27 1610.58 164.946C1612.57 163.604 1614.83 162.933 1617.35 162.933C1617.87 162.933 1618.48 162.952 1619.19 162.989C1619.92 163.026 1620.49 163.073 1620.9 163.129V171.127C1620.56 171.033 1619.97 170.931 1619.11 170.819C1618.25 170.689 1617.39 170.623 1616.54 170.623C1614.56 170.623 1612.8 171.043 1611.25 171.882C1609.72 172.702 1608.51 173.849 1607.61 175.321C1606.72 176.776 1606.27 178.435 1606.27 180.299V206.531H1597.91ZM1628.13 206.531V163.576H1636.5V206.531H1628.13ZM1632.36 156.948C1630.9 156.948 1629.65 156.464 1628.61 155.494C1627.58 154.506 1627.07 153.331 1627.07 151.971C1627.07 150.591 1627.58 149.416 1628.61 148.447C1629.65 147.459 1630.9 146.965 1632.36 146.965C1633.81 146.965 1635.05 147.459 1636.08 148.447C1637.12 149.416 1637.64 150.591 1637.64 151.971C1637.64 153.331 1637.12 154.506 1636.08 155.494C1635.05 156.464 1633.81 156.948 1632.36 156.948ZM1679.93 174.063L1672.35 175.405C1672.04 174.436 1671.53 173.513 1670.84 172.637C1670.17 171.761 1669.26 171.043 1668.1 170.483C1666.95 169.924 1665.5 169.645 1663.77 169.645C1661.4 169.645 1659.42 170.176 1657.84 171.239C1656.26 172.283 1655.46 173.634 1655.46 175.293C1655.46 176.729 1655.99 177.885 1657.06 178.761C1658.12 179.637 1659.83 180.355 1662.2 180.915L1669.03 182.481C1672.98 183.394 1675.92 184.802 1677.86 186.703C1679.8 188.605 1680.77 191.075 1680.77 194.114C1680.77 196.687 1680.03 198.98 1678.53 200.994C1677.06 202.988 1675 204.554 1672.35 205.692C1669.73 206.829 1666.68 207.398 1663.21 207.398C1658.4 207.398 1654.47 206.372 1651.44 204.321C1648.4 202.252 1646.53 199.316 1645.84 195.512L1653.92 194.282C1654.43 196.389 1655.46 197.983 1657.03 199.064C1658.6 200.127 1660.64 200.658 1663.15 200.658C1665.89 200.658 1668.08 200.089 1669.73 198.952C1671.37 197.796 1672.19 196.389 1672.19 194.729C1672.19 193.387 1671.68 192.259 1670.68 191.346C1669.69 190.432 1668.17 189.742 1666.12 189.276L1658.85 187.682C1654.84 186.769 1651.87 185.314 1649.95 183.32C1648.05 181.325 1647.1 178.798 1647.1 175.741C1647.1 173.205 1647.81 170.987 1649.23 169.085C1650.64 167.184 1652.6 165.701 1655.1 164.639C1657.6 163.557 1660.46 163.017 1663.68 163.017C1668.33 163.017 1671.98 164.024 1674.65 166.037C1677.31 168.032 1679.07 170.707 1679.93 174.063Z" fill="white"/>
<rect x="2.8125" y="2.8125" width="742.5" height="219.375" rx="42.1875" fill="white"/>
<rect x="2.8125" y="2.8125" width="742.5" height="219.375" rx="42.1875" stroke="#2C80FF" stroke-width="5.625" stroke-dasharray="5.63 5.63"/>
<rect x="90" y="45" width="16.875" height="135" rx="8.43751" fill="#2C80FF"/>
<rect x="129.375" y="63.2812" width="16.875" height="98.4375" rx="8.43751" fill="#2C80FF"/>
<rect x="168.75" y="53.4375" width="16.875" height="118.125" rx="8.43751" fill="#2C80FF"/>
<rect x="208.125" y="45" width="16.875" height="135" rx="8.43751" fill="#2C80FF"/>
<rect x="247.5" y="71.7188" width="16.875" height="81.5625" rx="8.43751" fill="#2C80FF"/>
<rect x="286.875" y="45" width="16.875" height="135" rx="8.43751" fill="#2C80FF"/>
<rect x="326.25" y="63.2812" width="16.875" height="98.4375" rx="8.43751" fill="#2C80FF"/>
<rect x="365.625" y="53.4375" width="16.875" height="118.125" rx="8.43751" fill="#2C80FF"/>
<rect x="405" y="45" width="16.875" height="135" rx="8.43751" fill="#2C80FF"/>
<rect x="444.375" y="71.7188" width="16.875" height="81.5625" rx="8.43751" fill="#2C80FF"/>
<rect x="483.75" y="45" width="16.875" height="135" rx="8.43751" fill="#2C80FF"/>
<rect x="523.125" y="63.2812" width="16.875" height="98.4375" rx="8.43751" fill="#2C80FF"/>
<rect x="562.5" y="53.4375" width="16.875" height="118.125" rx="8.43751" fill="#2C80FF"/>
<rect x="601.875" y="45" width="16.875" height="135" rx="8.43751" fill="#2C80FF"/>
<rect x="641.25" y="71.7188" width="16.875" height="81.5625" rx="8.43751" fill="#2C80FF"/>
<path d="M644.552 287.185L639.082 287.802C640.278 298.407 654.188 301.543 659.818 292.477L676.101 266.257L706.678 262.046C717.251 260.59 720.044 246.607 710.842 241.201L647.76 204.139C639.767 199.443 629.843 205.888 630.882 215.1L639.082 287.802L644.552 287.185ZM644.552 287.185L644.591 287.181L644.552 287.185Z" fill="#2C80FF" stroke="#61AAFF" stroke-width="11.25"/>
<rect x="688.217" y="297.281" width="247.5" height="101.25" rx="50.625" fill="#2C80FF"/>
<rect x="688.217" y="297.281" width="247.5" height="101.25" rx="50.625" stroke="#61AAFF" stroke-width="11.25"/>
<path d="M733.588 372.906V329.951H741.67V336.775H742.118C742.901 334.463 744.28 332.645 746.257 331.321C748.251 329.979 750.507 329.308 753.024 329.308C753.546 329.308 754.161 329.327 754.87 329.364C755.597 329.401 756.166 329.448 756.576 329.504V337.502C756.24 337.408 755.644 337.306 754.786 337.194C753.928 337.064 753.071 336.998 752.213 336.998C750.237 336.998 748.475 337.418 746.928 338.257C745.399 339.077 744.187 340.224 743.292 341.696C742.397 343.151 741.95 344.81 741.95 346.674V372.906H733.588ZM775.928 373.856C773.206 373.856 770.745 373.353 768.545 372.346C766.345 371.321 764.602 369.839 763.315 367.9C762.048 365.961 761.414 363.584 761.414 360.769C761.414 358.345 761.88 356.35 762.812 354.784C763.744 353.218 765.003 351.978 766.587 351.065C768.172 350.151 769.943 349.461 771.901 348.995C773.858 348.529 775.853 348.175 777.885 347.933C780.458 347.634 782.546 347.392 784.149 347.206C785.753 347.001 786.918 346.674 787.645 346.227C788.372 345.779 788.736 345.052 788.736 344.046V343.85C788.736 341.407 788.046 339.515 786.666 338.173C785.305 336.831 783.273 336.159 780.57 336.159C777.755 336.159 775.536 336.784 773.914 338.033C772.311 339.263 771.201 340.634 770.586 342.144L762.728 340.354C763.66 337.744 765.021 335.637 766.811 334.034C768.619 332.412 770.698 331.237 773.047 330.51C775.396 329.765 777.867 329.392 780.458 329.392C782.173 329.392 783.991 329.597 785.911 330.007C787.85 330.399 789.659 331.126 791.336 332.188C793.033 333.251 794.422 334.77 795.503 336.747C796.585 338.704 797.125 341.249 797.125 344.381V372.906H788.959V367.033H788.624C788.083 368.114 787.272 369.177 786.191 370.221C785.11 371.265 783.721 372.132 782.024 372.822C780.327 373.512 778.295 373.856 775.928 373.856ZM777.745 367.145C780.057 367.145 782.033 366.688 783.674 365.775C785.333 364.861 786.592 363.668 787.449 362.195C788.326 360.703 788.764 359.109 788.764 357.413V351.876C788.465 352.174 787.887 352.454 787.03 352.715C786.191 352.957 785.231 353.172 784.149 353.358C783.068 353.526 782.015 353.684 780.989 353.833C779.964 353.964 779.106 354.076 778.417 354.169C776.795 354.374 775.312 354.719 773.97 355.204C772.646 355.688 771.584 356.388 770.782 357.301C769.999 358.196 769.607 359.389 769.607 360.881C769.607 362.95 770.372 364.516 771.901 365.579C773.429 366.623 775.378 367.145 777.745 367.145ZM840.45 340.438L832.872 341.78C832.555 340.811 832.051 339.888 831.362 339.012C830.69 338.136 829.777 337.418 828.621 336.858C827.465 336.299 826.02 336.02 824.286 336.02C821.919 336.02 819.943 336.551 818.358 337.614C816.773 338.658 815.981 340.009 815.981 341.668C815.981 343.104 816.512 344.26 817.575 345.136C818.637 346.012 820.353 346.73 822.72 347.29L829.544 348.856C833.496 349.769 836.442 351.177 838.381 353.078C840.32 354.98 841.289 357.45 841.289 360.489C841.289 363.062 840.544 365.355 839.052 367.369C837.579 369.363 835.519 370.929 832.872 372.067C830.243 373.204 827.195 373.773 823.727 373.773C818.917 373.773 814.993 372.747 811.954 370.696C808.915 368.627 807.051 365.691 806.361 361.887L814.443 360.657C814.946 362.764 815.981 364.358 817.547 365.439C819.113 366.502 821.154 367.033 823.671 367.033C826.412 367.033 828.602 366.464 830.243 365.327C831.884 364.171 832.704 362.764 832.704 361.104C832.704 359.762 832.201 358.634 831.194 357.721C830.206 356.807 828.686 356.117 826.636 355.651L819.365 354.057C815.356 353.144 812.392 351.689 810.472 349.695C808.57 347.7 807.619 345.173 807.619 342.116C807.619 339.58 808.328 337.362 809.745 335.46C811.161 333.559 813.119 332.076 815.617 331.014C818.115 329.932 820.977 329.392 824.203 329.392C828.845 329.392 832.499 330.399 835.165 332.412C837.831 334.407 839.593 337.082 840.45 340.438ZM858.844 347.401V372.906H850.483V315.633H858.733V336.942H859.264C860.271 334.631 861.809 332.794 863.878 331.433C865.948 330.072 868.651 329.392 871.988 329.392C874.934 329.392 877.507 329.998 879.707 331.21C881.925 332.421 883.64 334.23 884.852 336.635C886.083 339.021 886.698 342.004 886.698 345.584V372.906H878.336V346.59C878.336 343.44 877.525 340.997 875.903 339.263C874.281 337.511 872.025 336.635 869.136 336.635C867.159 336.635 865.388 337.054 863.822 337.893C862.275 338.732 861.054 339.963 860.159 341.585C859.283 343.188 858.844 345.127 858.844 347.401Z" fill="white"/>
</svg>
